<svg width="16" height="16" viewBox="0 0 16 16" fill="none" xmlns="http://www.w3.org/2000/svg">
<g clip-path="url(#clip0_726_103)">
<path d="M7.53005 1.28156C7.56508 1.18504 7.62899 1.10164 7.71308 1.0427C7.79717 0.983765 7.89736 0.952148 8.00005 0.952148C8.10274 0.952148 8.20293 0.983765 8.28702 1.0427C8.37111 1.10164 8.43502 1.18504 8.47005 1.28156L8.94805 2.58756C9.32293 3.61139 9.91653 4.54117 10.6875 5.31213C11.4584 6.08309 12.3882 6.67668 13.412 7.05156L14.717 7.52956C14.8136 7.5646 14.897 7.6285 14.9559 7.71259C15.0148 7.79668 15.0465 7.89687 15.0465 7.99956C15.0465 8.10225 15.0148 8.20244 14.9559 8.28653C14.897 8.37062 14.8136 8.43453 14.717 8.46956L13.412 8.94756C12.3882 9.32244 11.4584 9.91604 10.6875 10.687C9.91653 11.458 9.32293 12.3877 8.94805 13.4116L8.47005 14.7166C8.43502 14.8131 8.37111 14.8965 8.28702 14.9554C8.20293 15.0144 8.10274 15.046 8.00005 15.046C7.89736 15.046 7.79717 15.0144 7.71308 14.9554C7.62899 14.8965 7.56508 14.8131 7.53005 14.7166L7.05205 13.4116C6.67717 12.3877 6.08357 11.458 5.31261 10.687C4.54166 9.91604 3.61188 9.32244 2.58805 8.94756L1.28205 8.46956C1.18552 8.43453 1.10213 8.37062 1.04319 8.28653C0.984253 8.20244 0.952637 8.10225 0.952637 7.99956C0.952637 7.89687 0.984253 7.79668 1.04319 7.71259C1.10213 7.6285 1.18552 7.5646 1.28205 7.52956L2.58805 7.05156C3.61188 6.67668 4.54166 6.08309 5.31261 5.31213C6.08357 4.54117 6.67717 3.61139 7.05205 2.58756L7.53005 1.28156Z" fill="white"/>
</g>
<defs>
<clipPath id="clip0_726_103">
<rect width="16" height="16" fill="white"/>
</clipPath>
</defs>
</svg>
