<svg width="24" height="24" viewBox="0 0 24 24" fill="none" xmlns="http://www.w3.org/2000/svg">
<path opacity="0.5" d="M15.7928 15.7928C15.9803 15.6053 16.2346 15.5 16.4998 15.5C16.765 15.5 17.0193 15.6053 17.2068 15.7928L21.2068 19.7928C21.3889 19.9814 21.4897 20.234 21.4875 20.4962C21.4852 20.7584 21.38 21.0092 21.1946 21.1946C21.0092 21.38 20.7584 21.4852 20.4962 21.4875C20.234 21.4897 19.9814 21.3889 19.7928 21.2068L15.7928 17.2068C15.6053 17.0193 15.5 16.765 15.5 16.4998C15.5 16.2346 15.6053 15.9803 15.7928 15.7928Z" fill="white"/>
<path d="M2.75 10.5C2.75 8.44457 3.56652 6.47333 5.01992 5.01992C6.47333 3.56652 8.44457 2.75 10.5 2.75C12.5554 2.75 14.5267 3.56652 15.9801 5.01992C17.4335 6.47333 18.25 8.44457 18.25 10.5C18.25 12.5554 17.4335 14.5267 15.9801 15.9801C14.5267 17.4335 12.5554 18.25 10.5 18.25C8.44457 18.25 6.47333 17.4335 5.01992 15.9801C3.56652 14.5267 2.75 12.5554 2.75 10.5ZM10.5 4.25C8.8424 4.25 7.25268 4.90848 6.08058 6.08058C4.90848 7.25268 4.25 8.8424 4.25 10.5C4.25 12.1576 4.90848 13.7473 6.08058 14.9194C7.25268 16.0915 8.8424 16.75 10.5 16.75C12.1576 16.75 13.7473 16.0915 14.9194 14.9194C16.0915 13.7473 16.75 12.1576 16.75 10.5C16.75 8.8424 16.0915 7.25268 14.9194 6.08058C13.7473 4.90848 12.1576 4.25 10.5 4.25Z" fill="white"/>
</svg>
